<svg id="svg" version="1.1" xmlns="http://www.w3.org/2000/svg" xmlns:xlink="http://www.w3.org/1999/xlink" width="400" height="400" viewBox="0, 0, 400,400"><g id="svgg"><path id="path0" d="M80.035 19.091 C 79.184 19.251,77.561 20.400,78.186 20.400 C 78.319 20.400,78.203 20.805,77.928 21.300 C 77.653 21.795,77.411 22.290,77.390 22.400 C 77.124 23.792,76.786 27.121,76.707 29.135 C 76.442 35.933,65.831 40.798,51.265 40.801 C 29.765 40.805,28.432 41.144,26.404 47.123 C 25.144 50.834,23.964 52.820,21.723 54.996 L 20.206 56.469 20.075 100.134 L 19.945 143.800 20.863 150.067 C 21.726 155.954,21.845 156.372,22.828 156.953 C 23.403 157.293,25.635 159.406,27.788 161.649 L 31.703 165.727 38.151 166.851 L 44.600 167.975 94.084 167.987 C 141.588 167.999,143.597 167.971,144.284 167.265 C 145.926 165.580,149.230 163.742,152.727 162.569 C 157.019 161.130,158.770 159.478,160.867 154.893 C 162.348 151.656,164.398 149.417,167.176 148.002 C 170.964 146.074,172.567 144.073,172.279 141.635 C 171.926 138.654,171.474 138.121,167.879 136.445 C 166.076 135.605,163.449 134.062,162.043 133.017 C 160.637 131.972,158.551 130.796,157.408 130.403 C 152.018 128.548,149.104 125.450,147.831 120.217 C 147.673 119.566,146.715 116.806,145.702 114.084 L 143.861 109.133 140.514 106.087 C 134.551 100.659,132.799 96.435,132.801 87.491 C 132.804 78.999,134.326 76.620,141.415 74.035 L 143.829 73.155 145.751 73.979 C 148.960 75.354,150.999 77.088,152.572 79.778 C 154.621 83.281,155.700 84.168,159.651 85.594 C 161.549 86.280,164.391 87.635,165.966 88.606 C 168.792 90.348,168.835 90.360,169.174 89.486 C 173.872 77.355,178.158 72.491,183.176 73.596 C 186.797 74.394,190.799 76.460,192.800 78.564 C 193.790 79.605,195.632 81.188,196.893 82.081 C 200.226 84.443,202.568 87.935,203.620 92.112 C 204.940 97.356,207.026 96.651,208.854 90.345 C 210.657 84.126,213.593 79.169,216.889 76.781 C 218.825 75.379,219.493 75.393,227.089 76.992 L 231.341 77.887 233.570 76.988 C 242.401 73.431,248.948 74.266,255.043 79.729 C 256.119 80.694,257.629 81.807,258.397 82.202 C 261.907 84.008,264.381 87.027,265.991 91.471 C 266.483 92.829,267.320 94.349,267.851 94.848 L 268.816 95.755 269.507 94.777 C 269.887 94.240,270.749 91.820,271.422 89.400 C 273.437 82.155,276.259 77.425,279.755 75.431 L 281.400 74.493 287.600 75.069 C 295.165 75.771,295.822 76.126,299.426 81.447 C 301.666 84.755,303.215 88.482,304.158 92.835 C 304.282 93.404,304.769 94.361,305.241 94.962 L 306.100 96.054 307.265 94.938 C 307.968 94.264,308.679 92.946,309.059 91.611 C 311.467 83.162,318.366 77.571,328.844 75.578 C 331.713 75.033,331.679 75.023,334.282 77.231 C 337.433 79.904,339.595 90.765,337.822 95.008 C 336.810 97.432,334.887 99.862,332.793 101.367 C 330.388 103.095,329.632 104.632,328.646 109.800 C 327.657 114.982,325.818 120.710,324.457 122.851 C 323.184 124.853,322.284 125.627,317.422 128.907 C 313.750 131.384,313.864 131.130,313.172 138.372 C 312.614 144.222,312.268 143.192,316.458 148.171 C 317.700 149.647,319.447 151.392,320.339 152.048 C 321.232 152.704,322.616 154.132,323.415 155.221 C 324.214 156.309,325.029 157.200,325.225 157.200 C 325.421 157.200,326.927 158.782,328.572 160.716 C 331.517 164.179,331.601 164.240,334.081 164.751 C 335.467 165.036,338.239 165.794,340.241 166.435 C 345.115 167.994,353.430 168.073,362.453 166.644 L 368.306 165.718 372.216 161.644 C 374.367 159.404,376.597 157.293,377.172 156.953 C 378.155 156.372,378.274 155.954,379.138 150.067 L 380.057 143.800 379.928 100.137 L 379.800 56.475 378.280 54.999 C 376.036 52.820,374.856 50.835,373.596 47.123 C 371.813 41.866,370.929 41.407,361.952 41.066 C 358.128 40.921,305.950 40.797,246.000 40.790 C 185.583 40.784,135.363 40.620,133.328 40.423 C 125.092 39.626,120.959 35.616,120.763 28.233 C 120.584 21.447,119.666 18.706,117.721 19.146 C 115.542 19.639,114.605 20.798,114.240 23.452 C 113.887 26.008,113.485 30.154,113.517 30.886 C 113.645 33.736,106.462 37.205,97.458 38.640 L 93.516 39.269 91.004 38.032 C 86.362 35.746,84.589 32.997,84.277 27.600 C 84.041 23.513,83.780 21.884,83.184 20.769 C 82.698 19.862,81.622 18.784,81.271 18.854 C 81.122 18.884,80.566 18.991,80.035 19.091 M83.867 73.522 C 86.627 74.644,89.059 76.613,90.221 78.666 C 92.150 82.074,93.377 83.721,94.137 83.920 C 96.023 84.413,101.261 87.278,103.706 89.155 C 106.037 90.944,106.446 91.133,106.650 90.516 C 108.705 84.320,113.838 76.251,116.724 74.680 L 118.733 73.586 120.962 74.420 C 129.534 77.627,132.017 85.394,128.776 98.865 C 125.953 110.601,124.156 113.949,119.046 117.000 C 118.677 117.220,117.747 119.260,116.978 121.534 C 114.318 129.403,108.051 137.007,105.044 136.014 C 103.463 135.493,99.264 132.859,98.471 131.893 C 98.180 131.538,96.721 130.781,95.229 130.211 C 89.622 128.068,87.249 125.799,85.529 120.932 C 84.698 118.583,82.049 114.800,81.234 114.800 C 80.506 114.800,78.404 118.471,77.803 120.790 C 76.646 125.255,73.347 130.400,71.641 130.400 C 71.459 130.400,70.666 130.912,69.879 131.537 C 68.494 132.638,68.253 132.684,62.409 132.947 L 56.370 133.220 54.735 131.910 C 49.334 127.583,48.260 126.046,46.784 120.539 C 45.717 116.560,44.218 113.800,42.570 112.781 C 33.298 107.051,30.319 82.868,38.067 76.236 C 40.318 74.309,43.427 73.149,44.788 73.728 C 47.458 74.862,50.336 77.646,51.257 79.986 C 51.894 81.603,56.051 88.400,56.403 88.400 C 56.582 88.400,58.410 87.962,60.464 87.428 C 62.519 86.893,65.235 86.250,66.500 85.999 C 69.062 85.491,69.852 84.648,72.311 79.800 C 74.964 74.566,79.874 71.899,83.867 73.522 M230.682 99.074 C 227.727 104.956,227.425 109.655,229.667 114.866 C 230.954 117.860,230.828 117.855,237.233 115.166 C 243.804 112.409,244.084 112.172,244.807 108.767 C 245.606 105.001,244.878 103.922,240.379 102.200 C 238.497 101.480,235.797 100.287,234.379 99.548 C 232.960 98.810,231.676 98.148,231.523 98.077 C 231.371 98.007,230.993 98.455,230.682 99.074 M180.829 117.365 C 180.578 117.667,179.829 119.598,179.163 121.657 C 177.872 125.649,176.644 128.039,174.812 130.125 C 172.564 132.686,174.456 135.148,178.930 135.481 C 181.401 135.665,188.400 132.362,188.400 131.011 C 188.400 129.768,184.163 118.903,183.439 118.289 C 181.900 116.984,181.317 116.778,180.829 117.365 M292.681 126.500 C 290.714 131.825,291.590 133.532,295.605 132.198 C 297.950 131.419,297.890 131.593,296.489 129.660 C 295.878 128.816,295.041 127.378,294.628 126.463 C 293.690 124.382,293.461 124.387,292.681 126.500 M343.301 279.800 C 343.305 280.680,343.387 280.993,343.483 280.495 C 343.579 279.998,343.575 279.278,343.475 278.895 C 343.375 278.513,343.296 278.920,343.301 279.800 " stroke="none" fill="#efbc6b" fill-rule="evenodd"></path><path id="path1" d="M236.800 138.829 C 224.219 139.691,214.022 142.000,212.277 144.381 C 211.552 145.371,209.543 146.649,208.200 146.974 C 207.540 147.133,205.470 148.112,203.600 149.150 C 199.914 151.194,199.024 151.619,195.427 153.052 C 192.652 154.158,191.429 155.196,190.308 157.400 C 188.575 160.805,184.213 164.400,181.815 164.400 C 180.896 164.400,178.014 167.739,177.372 169.548 C 175.651 174.396,173.887 177.342,171.010 180.171 C 165.663 185.430,164.264 188.982,162.961 200.600 C 162.443 205.220,161.708 210.980,161.328 213.400 C 160.123 221.071,160.375 224.606,163.865 249.000 C 165.150 257.978,166.076 259.869,170.337 262.217 C 172.632 263.480,173.156 264.182,174.819 268.211 C 178.052 276.046,187.688 285.691,194.785 288.195 C 197.299 289.082,199.066 290.567,200.176 292.725 C 202.423 297.093,206.335 298.496,222.200 300.624 C 224.400 300.920,227.640 301.430,229.400 301.758 C 231.160 302.087,234.130 302.557,236.000 302.804 C 237.870 303.050,240.435 303.515,241.699 303.836 C 243.696 304.345,244.144 304.346,245.104 303.850 C 246.268 303.248,246.725 303.150,252.800 302.199 C 254.890 301.872,258.760 301.244,261.400 300.803 C 264.040 300.363,266.657 300.002,267.216 300.001 C 273.257 299.994,283.520 295.642,285.206 292.373 C 286.249 290.350,288.746 288.230,291.039 287.421 C 292.117 287.041,293.594 286.474,294.321 286.161 C 296.314 285.304,299.612 282.022,300.459 280.054 C 301.643 277.306,302.642 276.161,304.694 275.209 C 308.178 273.591,309.745 271.521,311.437 266.304 C 312.632 262.619,314.475 259.897,317.187 257.810 C 319.792 255.805,320.658 254.023,322.039 247.826 C 326.433 228.099,324.168 190.500,318.466 188.517 C 316.989 188.003,314.802 185.411,314.172 183.426 C 312.512 178.202,306.911 168.392,305.092 167.525 C 302.542 166.309,297.741 162.093,295.471 159.077 C 292.422 155.026,285.219 150.456,279.580 148.995 C 275.966 148.058,274.292 147.090,272.391 144.835 C 270.326 142.386,269.110 141.888,262.123 140.630 C 256.746 139.662,244.858 138.342,242.549 138.457 C 241.917 138.489,239.330 138.656,236.800 138.829 M252.400 151.872 C 256.615 152.575,259.685 153.766,261.200 155.286 C 262.490 156.580,264.037 157.358,267.005 158.208 C 269.563 158.939,275.862 161.456,280.840 163.734 C 283.779 165.079,286.400 167.417,286.400 168.694 C 286.400 169.678,291.777 174.608,294.108 175.761 C 296.678 177.033,298.185 178.579,298.738 180.512 C 299.467 183.061,306.105 196.626,307.197 197.800 C 310.044 200.859,313.132 213.984,312.563 220.600 C 312.487 221.480,312.229 225.170,311.990 228.800 C 311.237 240.216,309.979 244.702,306.951 246.777 C 304.993 248.119,303.418 250.880,301.852 255.719 C 299.807 262.036,298.149 264.467,294.397 266.656 C 293.695 267.065,292.342 268.601,291.389 270.068 C 289.246 273.370,286.581 275.517,282.532 277.203 C 278.730 278.785,276.984 280.070,275.991 282.017 C 273.828 286.258,271.275 287.119,254.600 289.235 C 242.211 290.807,244.619 290.847,225.600 288.746 C 215.358 287.614,212.048 286.290,208.731 281.996 C 207.603 280.536,206.358 279.618,203.374 278.047 C 192.727 272.442,189.771 269.395,184.570 258.661 C 182.783 254.972,181.964 253.739,180.512 252.549 C 175.808 248.695,174.534 243.934,173.570 226.608 C 172.603 209.217,176.623 189.600,181.154 189.600 C 181.858 189.600,185.059 185.006,185.822 182.902 C 188.181 176.393,188.951 175.386,193.302 173.123 C 196.346 171.539,198.382 169.600,198.964 167.729 C 199.649 165.530,202.289 163.690,206.930 162.178 C 212.317 160.424,220.162 156.857,222.793 154.967 C 225.120 153.295,228.936 152.256,235.000 151.641 C 237.420 151.396,239.940 151.123,240.600 151.034 C 242.523 150.776,248.286 151.185,252.400 151.872 M237.800 175.650 C 235.380 175.855,230.880 176.459,227.800 176.992 C 224.720 177.525,221.329 178.083,220.265 178.231 C 217.909 178.560,215.375 180.371,214.126 182.619 C 212.811 184.985,210.264 187.381,207.851 188.524 C 204.646 190.042,202.980 192.312,201.778 196.802 C 201.238 198.822,200.376 201.312,199.863 202.337 C 197.480 207.094,194.400 212.918,194.032 213.361 C 193.400 214.123,192.441 218.707,192.616 220.126 C 192.703 220.827,192.977 223.189,193.225 225.375 C 193.741 229.919,194.027 230.841,195.436 232.515 C 196.791 234.126,198.486 237.579,199.600 241.000 C 200.102 242.540,201.051 244.877,201.709 246.194 C 202.368 247.510,203.590 250.300,204.425 252.394 C 206.062 256.495,205.965 256.400,210.400 258.270 C 211.830 258.874,214.260 260.101,215.800 260.998 C 217.340 261.895,219.991 263.287,221.692 264.091 C 223.393 264.895,225.643 266.337,226.692 267.295 C 229.296 269.671,229.877 269.865,237.285 270.823 L 243.765 271.661 249.983 270.591 C 256.293 269.505,256.810 269.320,258.147 267.674 C 260.331 264.985,263.978 262.689,267.664 261.684 C 269.783 261.106,274.811 257.238,276.584 254.821 C 277.423 253.679,279.042 252.055,280.184 251.212 C 287.727 245.639,290.250 220.744,285.172 202.000 C 284.307 198.810,283.493 195.641,283.362 194.959 C 282.964 192.885,281.659 191.761,278.600 190.856 C 274.165 189.545,271.644 186.801,270.639 182.189 C 270.039 179.432,259.009 176.584,244.600 175.463 C 243.280 175.360,240.220 175.444,237.800 175.650 M250.400 185.798 C 259.989 187.130,262.612 188.281,264.452 191.962 C 265.856 194.773,266.629 195.493,270.298 197.411 C 274.377 199.543,275.252 200.941,276.552 207.400 C 278.870 218.926,278.686 221.345,275.182 225.325 C 269.897 231.329,262.723 229.431,258.749 220.977 C 257.022 217.304,256.652 216.908,253.534 215.400 C 250.486 213.925,247.933 211.535,246.071 208.414 C 244.795 206.276,244.154 205.638,242.364 204.726 C 236.532 201.754,233.217 195.065,235.561 191.000 C 238.581 185.764,241.867 184.613,250.400 185.798 " stroke="none" fill="#9fddf2" fill-rule="evenodd"></path><path id="path2" d="M77.000 19.079 C 72.927 19.619,69.600 21.395,69.600 23.029 C 69.600 23.306,69.434 23.593,69.231 23.667 C 69.028 23.740,68.713 25.508,68.531 27.596 L 68.200 31.391 66.277 32.648 C 65.220 33.339,62.880 34.511,61.077 35.252 L 57.800 36.600 44.200 36.802 C 26.907 37.058,25.016 37.615,20.785 43.694 C 19.786 45.128,18.365 46.990,17.626 47.832 C 16.887 48.673,15.724 50.541,15.041 51.981 L 13.800 54.600 13.800 105.600 L 13.800 156.600 15.032 158.600 C 15.709 159.700,17.538 161.635,19.096 162.901 C 20.654 164.166,23.120 166.640,24.575 168.399 C 26.411 170.618,27.860 171.934,29.310 172.698 L 31.400 173.800 87.797 173.917 L 144.194 174.034 147.597 172.984 C 155.749 170.469,160.759 166.490,164.772 159.345 C 167.023 155.337,168.045 154.239,170.984 152.672 C 173.918 151.107,177.075 148.072,178.596 145.354 C 179.871 143.077,180.698 142.462,188.560 137.957 C 191.398 136.331,194.534 134.267,195.530 133.372 L 197.341 131.743 196.852 128.772 C 196.583 127.137,195.975 124.112,195.502 122.050 L 194.643 118.300 190.875 115.395 C 188.803 113.797,185.785 111.733,184.168 110.808 L 181.228 109.126 180.015 109.989 C 178.266 111.234,176.581 113.873,175.605 116.892 C 174.564 120.115,172.483 123.655,170.335 125.856 L 168.720 127.512 162.460 125.352 C 154.613 122.645,153.885 121.978,151.823 115.600 C 147.830 103.249,147.306 102.119,144.815 100.488 C 143.651 99.726,142.055 98.100,140.947 96.547 L 139.060 93.903 139.566 90.891 C 141.610 78.732,143.241 77.351,147.200 84.429 C 149.796 89.069,155.400 93.279,165.298 98.022 L 168.796 99.698 170.160 98.658 C 170.987 98.027,171.972 96.637,172.662 95.126 C 175.829 88.193,179.591 80.914,180.364 80.223 C 181.418 79.281,182.223 79.659,186.288 83.004 C 187.657 84.131,190.055 85.753,191.617 86.609 C 194.610 88.250,197.048 90.953,199.000 94.794 C 200.965 98.663,205.244 102.010,207.191 101.204 C 208.892 100.499,211.126 97.879,212.268 95.248 C 214.391 90.362,214.945 89.309,216.660 86.900 C 218.752 83.962,218.466 84.033,221.083 85.796 C 225.744 88.934,227.128 92.488,225.524 97.200 C 224.887 99.070,223.811 102.850,223.133 105.600 C 221.818 110.931,220.770 113.374,218.858 115.564 C 215.566 119.333,216.419 120.479,224.000 122.480 C 233.903 125.094,243.963 124.202,248.528 120.305 L 250.056 119.000 250.277 112.980 C 250.633 103.269,248.878 98.112,244.219 95.187 C 243.004 94.424,242.008 93.684,242.005 93.542 C 242.002 93.400,242.353 92.140,242.785 90.742 L 243.569 88.200 249.885 88.326 L 256.200 88.452 257.526 89.726 C 258.256 90.427,259.803 92.440,260.965 94.200 C 264.466 99.506,267.870 102.101,269.930 101.036 C 271.679 100.132,273.815 97.526,274.581 95.361 C 275.625 92.412,279.063 85.557,280.160 84.240 L 281.125 83.080 287.263 83.809 C 295.076 84.736,296.070 85.570,299.632 94.190 C 303.454 103.440,308.896 103.385,313.804 94.045 C 316.107 89.663,318.501 87.168,320.124 87.457 C 324.822 88.297,327.555 89.710,329.046 92.073 L 330.041 93.648 328.823 95.035 C 326.910 97.213,326.143 99.074,324.659 105.127 C 321.838 116.639,319.592 119.703,308.520 127.138 L 306.039 128.803 303.899 126.702 C 301.347 124.196,299.497 121.572,298.175 118.582 C 297.641 117.375,296.460 115.580,295.551 114.593 L 293.898 112.800 287.638 112.800 C 280.445 112.800,280.268 112.864,278.396 116.128 C 276.738 119.019,277.226 121.199,280.677 126.326 C 281.667 127.797,283.012 130.054,283.666 131.343 C 285.700 135.352,288.119 136.832,294.254 137.819 C 300.303 138.792,302.050 139.777,303.799 143.200 C 304.305 144.190,305.275 145.409,305.955 145.908 C 307.416 146.983,313.971 154.537,315.385 156.776 C 315.927 157.635,317.359 158.994,318.567 159.796 C 321.058 161.449,324.414 164.935,327.221 168.784 C 328.270 170.223,329.640 171.694,330.264 172.054 C 332.537 173.362,343.637 174.137,356.793 173.905 C 370.550 173.662,371.182 173.505,374.471 169.521 C 376.710 166.809,379.732 163.780,382.052 161.923 C 383.067 161.111,384.415 159.581,385.048 158.523 L 386.200 156.600 386.200 105.600 L 386.200 54.600 384.945 51.951 C 384.254 50.494,383.069 48.604,382.310 47.751 C 381.552 46.898,380.180 45.083,379.262 43.717 C 377.283 40.772,374.896 39.024,371.103 37.740 L 368.323 36.800 255.862 36.783 C 130.980 36.764,132.527 36.792,128.914 34.473 C 125.813 32.483,125.534 32.017,124.959 27.863 C 124.202 22.393,123.759 21.219,121.982 19.969 C 120.244 18.747,118.634 18.574,119.362 19.688 C 120.095 20.807,120.658 24.243,120.763 28.233 C 120.959 35.616,125.092 39.626,133.328 40.423 C 135.363 40.620,185.583 40.784,246.000 40.790 C 305.950 40.797,358.128 40.921,361.952 41.066 C 370.929 41.407,371.813 41.866,373.596 47.123 C 374.856 50.835,376.036 52.820,378.280 54.999 L 379.800 56.475 379.928 100.137 L 380.057 143.800 379.138 150.067 C 378.274 155.954,378.155 156.372,377.172 156.953 C 376.597 157.293,374.367 159.404,372.216 161.644 L 368.306 165.718 362.453 166.644 C 353.430 168.073,345.115 167.994,340.241 166.435 C 338.239 165.794,335.467 165.036,334.081 164.751 C 331.601 164.240,331.517 164.179,328.572 160.716 C 326.927 158.782,325.421 157.200,325.225 157.200 C 325.029 157.200,324.214 156.309,323.415 155.221 C 322.616 154.132,321.232 152.704,320.339 152.048 C 319.447 151.392,317.700 149.647,316.458 148.171 C 312.268 143.192,312.614 144.222,313.172 138.372 C 313.864 131.130,313.750 131.384,317.422 128.907 C 322.284 125.627,323.184 124.853,324.457 122.851 C 325.818 120.710,327.657 114.982,328.646 109.800 C 329.632 104.632,330.388 103.095,332.793 101.367 C 333.911 100.564,335.370 99.115,336.035 98.149 C 339.777 92.711,338.801 81.065,334.282 77.231 C 331.679 75.023,331.713 75.033,328.844 75.578 C 318.366 77.571,311.467 83.162,309.059 91.611 C 308.679 92.946,307.968 94.264,307.265 94.938 L 306.100 96.054 305.241 94.962 C 304.769 94.361,304.282 93.404,304.158 92.835 C 303.215 88.482,301.666 84.755,299.426 81.447 C 295.822 76.126,295.165 75.771,287.600 75.069 L 281.400 74.493 279.755 75.431 C 276.259 77.425,273.437 82.155,271.422 89.400 C 270.749 91.820,269.887 94.240,269.507 94.777 L 268.816 95.755 267.851 94.848 C 267.320 94.349,266.483 92.829,265.991 91.471 C 264.381 87.027,261.907 84.008,258.397 82.202 C 257.629 81.807,256.119 80.694,255.043 79.729 C 248.948 74.266,242.401 73.431,233.570 76.988 L 231.341 77.887 227.089 76.992 C 219.493 75.393,218.825 75.379,216.889 76.781 C 213.593 79.169,210.657 84.126,208.854 90.345 C 207.026 96.651,204.940 97.356,203.620 92.112 C 202.568 87.935,200.226 84.443,196.893 82.081 C 195.632 81.188,193.790 79.605,192.800 78.564 C 190.799 76.460,186.797 74.394,183.176 73.596 C 178.158 72.491,173.872 77.355,169.174 89.486 C 168.835 90.360,168.792 90.348,165.966 88.606 C 164.391 87.635,161.549 86.280,159.651 85.594 C 155.700 84.168,154.621 83.281,152.572 79.778 C 150.999 77.088,148.960 75.354,145.751 73.979 L 143.829 73.155 141.415 74.035 C 134.326 76.620,132.804 78.999,132.801 87.491 C 132.799 96.435,134.551 100.659,140.514 106.087 L 143.861 109.133 145.702 114.084 C 146.715 116.806,147.673 119.566,147.831 120.217 C 149.104 125.450,152.018 128.548,157.408 130.403 C 158.551 130.796,160.637 131.972,162.043 133.017 C 163.449 134.062,166.076 135.605,167.879 136.445 C 171.474 138.121,171.926 138.654,172.279 141.635 C 172.567 144.073,170.964 146.074,167.176 148.002 C 164.398 149.417,162.348 151.656,160.867 154.893 C 158.770 159.478,157.019 161.130,152.727 162.569 C 149.230 163.742,145.926 165.580,144.284 167.265 C 143.597 167.971,141.588 167.999,94.084 167.987 L 44.600 167.975 38.151 166.851 L 31.703 165.727 27.788 161.649 C 25.635 159.406,23.403 157.293,22.828 156.953 C 21.845 156.372,21.726 155.954,20.863 150.067 L 19.945 143.800 20.075 100.134 L 20.206 56.469 21.723 54.996 C 23.964 52.820,25.144 50.834,26.404 47.123 C 28.432 41.144,29.765 40.805,51.265 40.801 C 65.831 40.798,76.442 35.933,76.707 29.135 C 76.786 27.121,77.124 23.792,77.390 22.400 C 77.411 22.290,77.653 21.795,77.928 21.300 C 78.203 20.805,78.319 20.400,78.186 20.400 C 77.561 20.400,79.184 19.251,80.035 19.091 C 81.259 18.860,78.725 18.850,77.000 19.079 M82.145 19.402 C 83.622 20.879,83.965 22.195,84.277 27.600 C 84.589 32.997,86.362 35.746,91.004 38.032 L 93.516 39.269 97.458 38.640 C 106.462 37.205,113.645 33.736,113.517 30.886 C 113.485 30.154,113.887 26.008,114.240 23.452 C 114.597 20.860,115.524 19.672,117.600 19.147 C 119.314 18.714,116.191 18.760,113.000 19.215 C 107.913 19.940,106.485 20.662,103.427 24.052 C 103.103 24.411,102.934 24.801,103.051 24.918 C 103.169 25.035,103.040 25.551,102.766 26.064 C 102.491 26.577,102.218 27.448,102.159 27.999 C 101.798 31.362,101.819 31.343,97.399 32.525 L 93.800 33.488 92.280 32.526 C 90.536 31.421,90.529 31.405,90.251 28.200 C 89.734 22.246,87.803 19.779,83.043 18.998 C 81.595 18.760,81.532 18.789,82.145 19.402 M78.400 73.828 C 75.529 75.160,73.807 76.848,72.311 79.800 C 69.852 84.648,69.062 85.491,66.500 85.999 C 65.235 86.250,62.519 86.893,60.464 87.428 C 58.410 87.962,56.582 88.400,56.403 88.400 C 56.051 88.400,51.894 81.603,51.257 79.986 C 50.336 77.646,47.458 74.862,44.788 73.728 C 42.564 72.783,37.459 75.851,35.395 79.373 C 33.647 82.355,33.188 92.350,34.527 98.259 C 36.169 105.505,38.965 110.553,42.570 112.781 C 44.218 113.800,45.717 116.560,46.784 120.539 C 48.260 126.046,49.334 127.583,54.735 131.910 L 56.370 133.220 62.409 132.947 C 68.253 132.684,68.494 132.638,69.879 131.537 C 70.666 130.912,71.459 130.400,71.641 130.400 C 73.347 130.400,76.646 125.255,77.803 120.790 C 78.404 118.471,80.506 114.800,81.234 114.800 C 82.049 114.800,84.698 118.583,85.529 120.932 C 87.249 125.799,89.622 128.068,95.229 130.211 C 96.721 130.781,98.180 131.538,98.471 131.893 C 99.264 132.859,103.463 135.493,105.044 136.014 C 108.051 137.007,114.318 129.403,116.978 121.534 C 117.747 119.260,118.677 117.220,119.046 117.000 C 124.156 113.949,125.953 110.601,128.776 98.865 C 132.017 85.394,129.534 77.627,120.962 74.420 L 118.733 73.586 116.724 74.680 C 113.838 76.251,108.705 84.320,106.650 90.516 C 106.446 91.133,106.037 90.944,103.706 89.155 C 101.261 87.278,96.023 84.413,94.137 83.920 C 93.377 83.721,92.150 82.074,90.221 78.666 C 87.654 74.131,82.391 71.977,78.400 73.828 M85.772 83.225 C 89.852 89.472,102.682 99.954,106.299 99.994 C 107.478 100.008,109.951 97.111,110.999 94.487 C 112.639 90.382,118.095 80.800,118.793 80.800 C 120.304 80.800,124.788 90.410,124.797 93.668 C 124.806 96.869,120.265 107.006,118.028 108.777 C 115.936 110.435,114.260 113.244,113.264 116.765 C 112.150 120.700,108.332 126.791,106.550 127.474 C 106.224 127.600,103.221 126.581,99.878 125.210 C 93.059 122.413,92.211 121.737,89.757 117.132 C 88.149 114.115,84.680 110.086,82.567 108.780 L 81.153 107.906 79.826 108.853 C 77.893 110.232,75.936 112.735,74.845 115.223 C 72.638 120.253,71.527 122.282,70.218 123.677 L 68.831 125.154 62.516 125.431 L 56.200 125.708 54.528 123.894 C 52.362 121.542,51.444 119.692,50.396 115.565 C 49.167 110.726,47.536 107.684,44.542 104.645 C 38.592 98.607,37.629 94.453,40.273 86.244 C 42.797 78.411,43.371 78.403,47.807 86.149 C 55.685 99.905,54.093 99.038,65.728 95.902 L 68.856 95.059 71.368 91.921 C 72.749 90.194,74.761 87.217,75.839 85.304 C 76.918 83.391,78.556 81.041,79.480 80.080 L 81.160 78.334 82.609 79.467 C 83.406 80.090,84.830 81.781,85.772 83.225 M234.379 99.548 C 235.797 100.287,238.497 101.480,240.379 102.200 C 244.878 103.922,245.606 105.001,244.807 108.767 C 244.084 112.172,243.804 112.409,237.233 115.166 C 230.828 117.855,230.954 117.860,229.667 114.866 C 227.955 110.889,227.707 106.590,228.990 103.186 C 230.389 99.476,231.165 97.911,231.523 98.077 C 231.676 98.148,232.960 98.810,234.379 99.548 M183.439 118.289 C 184.163 118.903,188.400 129.768,188.400 131.011 C 188.400 132.362,181.401 135.665,178.930 135.481 C 174.456 135.148,172.564 132.686,174.812 130.125 C 176.644 128.039,177.872 125.649,179.163 121.657 C 180.857 116.419,181.052 116.265,183.439 118.289 M294.628 126.463 C 295.041 127.378,295.878 128.816,296.489 129.660 C 297.890 131.593,297.950 131.419,295.605 132.198 C 291.590 133.532,290.714 131.825,292.681 126.500 C 293.461 124.387,293.690 124.382,294.628 126.463 M236.200 136.999 C 218.243 138.313,213.093 139.696,204.660 145.472 C 201.384 147.715,196.209 150.480,193.485 151.441 C 191.071 152.292,189.702 153.472,187.801 156.340 C 185.796 159.365,184.395 160.585,180.899 162.350 C 177.940 163.844,176.718 165.290,175.180 169.116 C 173.623 172.992,171.792 175.721,168.855 178.545 C 164.978 182.272,162.519 188.406,161.378 197.200 C 160.194 206.324,158.643 214.083,157.300 217.600 C 156.859 218.756,157.802 226.346,159.411 234.600 C 159.969 237.460,161.027 243.705,161.761 248.478 C 163.444 259.419,163.882 260.387,168.900 264.268 C 170.900 265.815,171.442 266.554,173.047 269.924 C 177.376 279.011,183.065 284.816,192.331 289.601 C 194.709 290.829,196.082 291.847,197.131 293.161 C 201.563 298.709,202.840 299.318,215.200 301.780 C 224.330 303.598,226.404 304.128,233.200 306.382 C 235.290 307.075,238.507 307.978,240.349 308.388 L 243.697 309.135 246.681 308.161 C 248.323 307.625,250.200 306.910,250.853 306.573 C 252.700 305.617,259.605 303.731,266.200 302.379 C 280.108 299.529,282.745 298.599,285.512 295.564 C 290.207 290.414,291.026 289.739,293.995 288.574 C 298.139 286.948,299.740 285.631,302.193 281.828 C 303.942 279.117,304.783 278.225,306.674 277.076 C 310.251 274.904,311.289 273.498,312.867 268.691 C 314.012 265.203,315.269 263.380,318.998 259.800 C 323.330 255.641,323.780 254.118,325.377 238.200 C 326.853 223.499,326.876 220.037,325.582 207.600 C 323.924 191.657,323.523 190.304,318.935 185.163 C 317.606 183.674,316.075 181.255,314.838 178.692 C 310.115 168.908,308.899 167.093,305.400 164.600 C 301.393 161.746,300.549 160.963,297.209 157.000 C 293.839 153.001,289.441 150.289,279.630 146.160 C 278.656 145.750,276.807 144.398,275.521 143.155 C 271.708 139.470,267.932 138.672,244.800 136.659 C 243.810 136.572,239.940 136.726,236.200 136.999 M250.149 139.018 C 264.316 140.375,269.851 141.823,272.391 144.835 C 274.292 147.090,275.966 148.058,279.580 148.995 C 285.219 150.456,292.422 155.026,295.471 159.077 C 297.741 162.093,302.542 166.309,305.092 167.525 C 306.911 168.392,312.512 178.202,314.172 183.426 C 314.802 185.411,316.989 188.003,318.466 188.517 C 324.168 190.500,326.433 228.099,322.039 247.826 C 320.658 254.023,319.792 255.805,317.187 257.810 C 314.475 259.897,312.632 262.619,311.437 266.304 C 309.745 271.521,308.178 273.591,304.694 275.209 C 302.642 276.161,301.643 277.306,300.459 280.054 C 299.612 282.022,296.314 285.304,294.321 286.161 C 293.594 286.474,292.117 287.041,291.039 287.421 C 288.746 288.230,286.249 290.350,285.206 292.373 C 283.520 295.642,273.257 299.994,267.216 300.001 C 266.657 300.002,264.040 300.363,261.400 300.803 C 258.760 301.244,254.890 301.872,252.800 302.199 C 246.725 303.150,246.268 303.248,245.104 303.850 C 244.144 304.346,243.696 304.345,241.699 303.836 C 240.435 303.515,237.870 303.050,236.000 302.804 C 234.130 302.557,231.160 302.087,229.400 301.758 C 227.640 301.430,224.400 300.920,222.200 300.624 C 206.335 298.496,202.423 297.093,200.176 292.725 C 199.066 290.567,197.299 289.082,194.785 288.195 C 187.688 285.691,178.052 276.046,174.819 268.211 C 173.156 264.182,172.632 263.480,170.337 262.217 C 166.076 259.869,165.150 257.978,163.865 249.000 C 160.375 224.606,160.123 221.071,161.328 213.400 C 161.708 210.980,162.443 205.220,162.961 200.600 C 164.264 188.982,165.663 185.430,171.010 180.171 C 173.887 177.342,175.651 174.396,177.372 169.548 C 178.014 167.739,180.896 164.400,181.815 164.400 C 184.213 164.400,188.575 160.805,190.308 157.400 C 191.429 155.196,192.652 154.158,195.427 153.052 C 199.024 151.619,199.914 151.194,203.600 149.150 C 205.470 148.112,207.540 147.133,208.200 146.974 C 209.543 146.649,211.552 145.371,212.277 144.381 C 214.293 141.630,226.405 139.260,242.549 138.457 C 243.181 138.426,246.601 138.678,250.149 139.018 M240.600 151.034 C 239.940 151.123,237.420 151.396,235.000 151.641 C 228.936 152.256,225.120 153.295,222.793 154.967 C 220.162 156.857,212.317 160.424,206.930 162.178 C 202.289 163.690,199.649 165.530,198.964 167.729 C 198.382 169.600,196.346 171.539,193.302 173.123 C 188.951 175.386,188.181 176.393,185.822 182.902 C 185.059 185.006,181.858 189.600,181.154 189.600 C 176.623 189.600,172.603 209.217,173.570 226.608 C 174.534 243.934,175.808 248.695,180.512 252.549 C 181.964 253.739,182.783 254.972,184.570 258.661 C 189.771 269.395,192.727 272.442,203.374 278.047 C 206.358 279.618,207.603 280.536,208.731 281.996 C 212.048 286.290,215.358 287.614,225.600 288.746 C 244.619 290.847,242.211 290.807,254.600 289.235 C 271.275 287.119,273.828 286.258,275.991 282.017 C 276.984 280.070,278.730 278.785,282.532 277.203 C 286.581 275.517,289.246 273.370,291.389 270.068 C 292.342 268.601,293.695 267.065,294.397 266.656 C 298.149 264.467,299.807 262.036,301.852 255.719 C 303.418 250.880,304.993 248.119,306.951 246.777 C 309.979 244.702,311.237 240.216,311.990 228.800 C 312.229 225.170,312.487 221.480,312.563 220.600 C 313.132 213.984,310.044 200.859,307.197 197.800 C 306.105 196.626,299.467 183.061,298.738 180.512 C 298.185 178.579,296.678 177.033,294.108 175.761 C 291.777 174.608,286.400 169.678,286.400 168.694 C 286.400 167.417,283.779 165.079,280.840 163.734 C 275.862 161.456,269.563 158.939,267.005 158.208 C 264.037 157.358,262.490 156.580,261.200 155.286 C 258.585 152.664,246.714 150.214,240.600 151.034 M247.800 153.973 C 252.282 155.048,254.595 155.882,256.744 157.197 C 258.767 158.436,263.735 160.151,267.174 160.798 C 269.305 161.199,278.937 165.231,281.502 166.796 C 282.218 167.233,283.411 168.538,284.153 169.695 C 285.773 172.221,289.069 175.388,291.771 177.014 C 295.540 179.282,299.154 185.624,303.207 197.084 C 303.690 198.450,304.865 200.754,305.818 202.205 C 312.427 212.268,311.778 235.128,304.610 244.714 C 302.461 247.588,301.425 249.745,300.352 253.576 C 298.840 258.977,296.394 262.702,292.970 264.818 C 292.203 265.293,290.854 266.742,289.974 268.039 C 287.573 271.575,285.367 273.483,281.600 275.286 C 277.053 277.462,276.026 278.204,273.832 280.897 C 270.416 285.090,267.678 285.913,251.400 287.638 C 243.015 288.527,239.222 288.400,225.070 286.761 C 216.903 285.814,215.086 285.061,211.355 281.073 C 209.605 279.203,207.847 277.870,205.168 276.382 C 194.623 270.527,191.509 267.364,186.675 257.600 C 184.694 253.599,183.696 252.089,181.677 250.042 C 178.352 246.670,177.456 244.774,176.646 239.400 C 173.523 218.665,175.850 198.244,182.026 192.181 C 184.546 189.708,186.398 186.906,187.566 183.800 C 189.393 178.940,191.104 176.796,194.798 174.740 C 197.573 173.195,199.314 171.566,201.026 168.914 C 202.671 166.364,204.771 164.989,208.984 163.699 C 210.753 163.158,213.730 162.117,215.600 161.385 C 217.470 160.653,220.170 159.764,221.600 159.408 C 223.030 159.053,225.910 157.960,228.000 156.981 C 234.523 153.924,242.525 152.708,247.800 153.973 M331.685 276.330 C 331.182 276.401,329.352 277.785,327.620 279.406 C 324.668 282.166,321.129 284.301,318.345 284.999 C 313.567 286.198,311.569 290.037,311.080 298.954 C 310.594 307.837,311.564 310.081,317.351 313.445 C 320.611 315.341,322.156 316.871,324.020 320.047 C 325.713 322.932,327.537 324.743,330.029 326.015 C 332.509 327.280,334.688 329.469,336.419 332.433 C 338.099 335.309,340.295 337.455,342.963 338.827 C 345.249 340.002,347.492 342.253,348.668 344.552 C 349.952 347.063,352.958 350.061,355.464 351.331 C 357.532 352.379,360.315 355.102,361.335 357.075 C 363.576 361.408,367.543 363.147,372.666 362.042 C 385.073 359.368,386.652 357.724,382.827 351.464 C 380.738 348.044,380.565 347.721,378.843 344.000 C 377.043 340.112,374.475 337.103,370.200 333.875 C 367.879 332.122,367.071 331.182,365.479 328.380 C 364.422 326.521,362.571 323.531,361.366 321.736 L 359.174 318.472 359.833 315.536 C 360.704 311.656,362.142 308.671,363.797 307.307 C 364.938 306.366,365.803 300.600,364.803 300.600 C 364.769 300.600,364.660 300.159,364.561 299.621 C 364.462 299.082,364.080 298.310,363.713 297.904 C 363.127 297.256,363.123 297.195,363.682 297.410 C 364.032 297.545,364.455 297.434,364.621 297.165 C 364.815 296.853,364.757 296.779,364.462 296.962 C 364.208 297.119,364.000 297.046,364.000 296.800 C 364.000 296.554,363.820 296.464,363.600 296.600 C 363.380 296.736,363.200 296.646,363.200 296.400 C 363.200 296.154,363.020 296.064,362.800 296.200 C 362.580 296.336,362.400 296.237,362.400 295.981 C 362.400 295.724,362.152 295.610,361.849 295.726 C 361.546 295.842,361.115 295.755,360.892 295.532 C 360.617 295.257,360.197 295.280,359.595 295.603 C 359.105 295.865,358.809 295.908,358.939 295.699 C 359.074 295.480,358.500 295.335,357.588 295.359 C 356.716 295.382,356.002 295.501,356.001 295.624 C 355.993 297.278,350.841 299.614,345.946 300.184 L 343.691 300.446 342.294 298.723 C 338.453 293.988,338.378 286.334,342.136 282.588 C 343.343 281.385,343.390 281.222,343.167 278.964 C 343.039 277.664,342.904 276.769,342.867 276.976 C 342.830 277.184,342.536 277.004,342.213 276.576 C 341.851 276.098,341.621 276.001,341.613 276.324 C 341.605 276.648,341.409 276.724,341.100 276.524 C 340.617 276.211,333.549 276.065,331.685 276.330 " stroke="none" fill="#bc5c48" fill-rule="evenodd"></path><path id="path3" d="M21.880 6.769 C 19.462 7.265,18.847 9.137,18.813 16.100 L 18.800 18.800 9.400 18.800 L 0.000 18.800 0.000 106.200 L 0.000 193.600 65.600 193.600 L 131.200 193.600 131.233 225.300 C 131.281 272.026,130.634 268.028,138.212 268.431 C 140.972 268.577,143.308 268.774,143.402 268.868 C 143.496 268.963,143.684 272.541,143.820 276.820 C 144.340 293.223,144.032 292.682,153.262 293.417 L 156.325 293.661 156.462 299.211 C 156.635 306.177,156.225 305.767,163.175 305.929 L 168.712 306.059 168.956 307.279 C 169.090 307.951,169.201 309.692,169.202 311.150 C 169.208 317.717,169.584 317.970,180.078 318.472 C 187.715 318.837,188.199 318.907,188.759 319.729 C 189.408 320.683,191.717 322.998,193.114 324.096 C 193.833 324.661,194.000 325.199,194.000 326.952 C 194.000 328.482,194.223 329.386,194.765 330.056 L 195.530 331.000 244.765 331.000 C 277.312 331.000,294.005 331.136,294.014 331.400 C 294.375 341.536,295.222 342.709,302.507 343.151 L 306.600 343.400 306.849 347.493 C 307.291 354.774,308.517 355.657,318.640 355.986 C 318.912 355.995,319.173 357.534,319.325 360.039 C 319.746 366.942,320.503 367.686,327.652 368.212 L 331.504 368.496 331.788 372.348 C 332.388 380.499,333.924 381.183,351.646 381.196 L 356.292 381.200 356.481 386.105 C 356.779 393.845,355.758 393.327,371.083 393.514 C 392.702 393.778,392.686 393.783,393.320 386.240 L 393.744 381.200 396.872 381.200 L 400.000 381.200 400.000 350.000 L 400.000 318.800 396.854 318.800 L 393.708 318.800 393.519 313.895 C 393.241 306.690,393.351 306.797,385.954 306.500 L 380.907 306.298 380.710 301.828 C 380.413 295.097,379.880 294.601,372.460 294.151 L 368.051 293.883 367.795 291.241 C 367.482 288.015,366.600 285.105,365.683 284.275 C 363.122 281.958,344.849 280.088,343.000 281.954 C 341.950 283.014,341.171 283.957,341.234 284.092 C 341.262 284.151,341.092 284.920,340.857 285.800 C 340.383 287.571,340.019 290.176,339.931 292.417 C 339.871 293.943,341.664 297.610,343.110 298.918 C 343.911 299.643,351.644 298.853,351.926 298.018 C 351.995 297.813,352.310 297.744,352.626 297.865 C 352.942 297.986,353.200 297.876,353.200 297.619 C 353.200 297.363,353.380 297.264,353.600 297.400 C 353.820 297.536,354.000 297.446,354.000 297.200 C 354.000 296.954,354.153 296.847,354.340 296.963 C 354.527 297.078,354.927 296.710,355.230 296.144 C 355.737 295.197,355.947 295.130,357.907 295.292 C 359.228 295.402,359.838 295.333,359.517 295.111 C 358.800 294.614,362.290 295.162,363.800 295.783 C 365.452 296.462,366.618 297.815,365.032 297.212 L 363.945 296.799 364.852 298.073 C 365.401 298.845,365.586 299.405,365.320 299.493 C 365.019 299.594,365.058 299.995,365.448 300.775 C 365.842 301.566,365.903 302.204,365.647 302.876 C 365.446 303.406,365.371 304.316,365.483 304.898 C 365.637 305.706,365.319 306.410,364.140 307.878 C 362.124 310.385,361.822 310.974,361.206 313.600 C 360.922 314.810,360.547 316.391,360.373 317.114 C 360.095 318.271,360.283 318.770,361.960 321.314 C 363.960 324.345,365.627 327.124,367.052 329.800 C 367.622 330.869,368.977 332.166,371.138 333.709 C 375.502 336.826,380.376 343.186,380.404 345.800 C 380.407 346.131,381.949 348.304,383.552 350.238 C 385.588 352.693,386.267 356.174,385.027 357.800 C 383.233 360.152,374.163 363.200,368.955 363.200 C 366.208 363.200,360.462 358.752,360.410 356.585 C 360.391 355.793,356.588 352.475,354.513 351.440 C 351.821 350.098,349.886 348.139,348.433 345.285 C 347.025 342.519,344.917 340.441,342.086 339.028 C 339.476 337.725,337.161 335.390,336.006 332.894 C 334.828 330.352,332.253 327.775,329.742 326.625 C 327.097 325.414,324.577 322.883,323.352 320.207 C 322.323 317.961,319.182 314.697,317.570 314.198 C 315.682 313.615,312.984 311.244,311.600 308.952 L 310.200 306.633 310.127 299.416 C 310.028 289.736,309.812 288.150,308.393 286.732 C 307.000 285.339,306.093 285.288,305.768 286.586 C 305.113 289.195,301.051 291.503,295.598 292.365 C 293.177 292.747,292.394 293.463,291.399 296.200 C 290.597 298.407,288.738 300.407,286.363 301.619 C 284.785 302.424,283.910 302.646,273.470 304.884 C 267.972 306.063,267.498 306.237,266.968 307.262 C 264.563 311.913,254.635 315.335,243.400 315.385 C 230.020 315.444,221.839 313.419,218.687 309.266 C 218.075 308.460,217.265 307.396,216.887 306.903 C 216.321 306.164,215.105 305.787,210.000 304.772 C 197.054 302.196,196.366 301.950,194.597 299.252 C 194.074 298.453,193.005 297.082,192.223 296.204 C 191.440 295.327,190.800 294.382,190.800 294.104 C 190.800 293.827,190.562 293.600,190.271 293.600 C 189.763 293.600,183.676 290.683,181.600 289.445 C 181.050 289.117,179.735 288.539,178.677 288.161 C 176.763 287.477,174.133 284.995,174.133 283.872 C 174.133 283.576,173.138 281.188,171.922 278.566 C 170.706 275.945,169.495 272.989,169.231 271.998 C 168.711 270.045,167.444 268.936,164.705 268.034 C 161.131 266.856,160.112 264.297,158.410 252.222 C 156.827 240.996,156.591 240.067,155.118 239.246 C 151.293 237.115,149.114 233.136,148.633 227.400 C 147.920 218.898,147.914 217.786,148.575 215.268 C 149.908 210.181,151.637 207.464,155.373 204.584 C 156.320 203.854,156.532 203.183,157.394 198.184 C 157.923 195.113,158.762 190.350,159.258 187.600 C 161.469 175.352,160.129 172.525,153.083 174.563 C 146.498 176.468,147.148 176.451,86.590 176.322 L 29.381 176.200 26.590 174.800 C 24.177 173.589,23.628 173.103,22.530 171.200 C 20.559 167.785,19.742 166.922,17.189 165.562 C 14.435 164.094,13.259 162.700,12.062 159.485 L 11.200 157.170 11.207 105.885 C 11.215 43.792,10.709 48.719,17.809 41.700 C 24.212 35.369,26.380 34.800,44.121 34.800 C 57.361 34.800,57.784 34.742,62.709 32.246 C 64.438 31.370,64.806 30.997,64.833 30.093 C 64.987 24.984,66.732 20.760,69.000 20.011 C 70.779 19.424,75.457 18.817,78.277 18.808 L 80.753 18.800 80.525 15.900 C 80.015 9.428,78.832 7.942,73.556 7.146 C 70.087 6.623,24.223 6.288,21.880 6.769 M88.200 6.797 C 82.516 7.299,82.044 7.867,81.698 14.629 L 81.492 18.659 85.340 19.131 C 88.944 19.574,91.977 20.690,91.332 21.335 C 91.186 21.481,91.256 21.600,91.488 21.600 C 92.289 21.600,93.471 24.752,93.588 27.200 C 93.635 28.180,93.647 28.176,94.162 27.000 C 94.452 26.340,94.613 25.665,94.521 25.500 C 94.428 25.335,94.543 25.200,94.776 25.200 C 95.009 25.200,95.200 24.994,95.200 24.743 C 95.200 21.871,102.398 19.550,113.149 18.955 L 118.098 18.681 117.833 16.040 C 117.256 10.307,116.018 8.413,112.332 7.623 C 110.562 7.243,94.459 6.315,92.200 6.463 C 91.760 6.491,89.960 6.642,88.200 6.797 M124.000 6.660 C 120.363 7.225,120.345 7.233,119.821 8.524 C 119.535 9.226,119.180 11.813,119.031 14.273 L 118.761 18.745 120.680 19.027 C 125.608 19.751,126.557 20.968,127.354 27.585 L 127.810 31.369 129.472 32.537 C 132.684 34.795,131.045 34.765,255.317 34.784 C 378.326 34.802,371.139 34.669,376.304 37.007 C 379.110 38.277,385.647 44.700,386.810 47.329 C 388.815 51.862,388.786 50.996,388.793 105.885 L 388.800 157.170 387.938 159.485 C 386.749 162.680,385.566 164.093,382.887 165.521 C 380.186 166.961,379.313 167.852,377.767 170.748 C 376.374 173.359,374.974 174.472,371.713 175.566 C 366.674 177.256,326.975 176.395,325.210 174.558 C 324.596 173.919,324.059 171.396,324.010 168.915 C 323.997 168.273,319.239 163.200,318.650 163.200 C 315.577 163.200,314.760 167.754,316.981 172.500 L 318.806 176.400 320.341 176.400 C 322.233 176.400,323.015 177.204,323.399 179.543 C 323.556 180.501,324.177 182.031,324.779 182.943 C 327.141 186.522,328.207 191.315,328.616 200.200 C 328.758 203.280,329.293 208.733,329.805 212.319 L 330.735 218.837 329.983 227.919 C 329.569 232.913,329.122 237.720,328.989 238.600 C 328.856 239.480,328.596 244.198,328.411 249.084 C 327.960 260.990,326.650 263.739,320.703 265.264 C 317.877 265.988,317.010 267.439,316.440 272.400 C 315.830 277.709,315.403 278.975,313.761 280.328 C 312.468 281.394,312.403 281.545,312.988 282.131 C 315.674 284.817,321.659 283.623,325.949 279.546 C 329.672 276.007,330.473 275.641,334.305 275.727 C 336.281 275.771,337.603 275.640,337.606 275.400 C 337.610 275.133,337.710 275.133,337.906 275.400 C 338.252 275.871,339.198 275.905,339.892 275.471 C 340.162 275.302,340.747 275.358,341.192 275.596 C 341.806 275.925,342.010 275.905,342.040 275.514 C 342.062 275.231,342.224 275.450,342.400 276.000 C 342.664 276.825,342.740 276.651,342.831 275.000 C 342.936 273.087,342.953 273.122,343.200 275.800 C 343.350 277.425,343.488 273.883,343.529 267.359 L 343.600 256.118 347.851 255.843 C 356.496 255.284,355.747 258.365,355.910 222.700 L 356.043 193.600 378.022 193.600 L 400.000 193.600 400.000 106.200 L 400.000 18.800 390.661 18.800 L 381.323 18.800 381.067 14.041 C 380.789 8.871,380.453 7.499,379.331 6.955 C 378.635 6.617,126.152 6.326,124.000 6.660 M79.484 84.632 C 78.499 86.595,76.874 89.421,75.873 90.913 C 74.872 92.405,73.851 94.239,73.604 94.988 C 72.328 98.854,70.414 99.668,58.000 101.624 C 51.209 102.694,50.369 103.748,51.803 109.400 C 52.306 111.380,52.843 114.260,52.996 115.800 C 53.218 118.022,53.556 119.032,54.636 120.691 L 55.996 122.782 60.498 122.574 C 70.160 122.128,70.253 122.073,71.961 115.848 C 73.349 110.790,74.014 109.781,78.907 105.300 C 81.277 103.129,80.711 102.918,85.872 107.900 C 89.915 111.803,90.481 112.532,92.010 115.800 L 93.693 119.400 99.746 121.903 C 107.100 124.943,106.332 124.961,108.564 121.693 C 110.212 119.282,110.455 118.638,110.787 115.793 C 111.403 110.531,112.356 107.369,113.549 106.632 C 113.747 106.509,114.028 105.777,114.173 105.004 C 114.318 104.232,114.653 103.586,114.918 103.569 C 115.183 103.552,116.203 103.507,117.185 103.469 L 118.971 103.400 120.897 98.641 C 123.090 93.225,123.092 93.292,120.494 88.286 C 118.773 84.968,118.818 84.954,116.159 89.599 L 114.000 93.370 114.000 98.061 C 114.000 103.556,114.186 103.321,109.702 103.494 C 101.111 103.826,88.465 94.519,82.606 83.553 L 81.276 81.065 79.484 84.632 M180.914 84.095 C 179.808 85.518,176.000 94.072,176.000 95.134 C 176.000 103.798,170.795 105.130,159.361 99.392 C 151.885 95.640,149.708 100.895,153.558 113.400 C 155.637 120.152,155.304 119.831,162.801 122.335 L 168.797 124.338 170.123 122.669 C 172.299 119.929,172.647 119.148,173.179 115.800 C 174.169 109.580,177.237 105.600,181.041 105.600 C 183.118 105.600,196.418 114.604,197.778 116.931 C 198.688 118.488,200.400 127.723,200.400 131.073 C 200.400 136.145,203.254 137.378,211.071 135.680 C 213.311 135.194,217.901 134.611,221.271 134.385 C 240.268 133.110,243.991 132.954,247.800 133.272 C 273.947 135.454,281.136 134.484,277.813 129.221 C 272.926 121.480,273.641 112.455,279.373 109.516 C 281.578 108.385,293.154 108.801,295.945 110.111 C 298.044 111.097,299.714 113.277,300.365 115.881 C 301.074 118.718,302.249 120.881,304.337 123.193 L 306.200 125.255 309.200 123.146 C 317.996 116.964,321.752 111.081,322.646 102.090 C 322.939 99.150,323.356 96.098,323.574 95.309 C 324.064 93.533,324.014 93.454,321.471 91.995 C 318.450 90.263,317.779 90.735,315.626 96.107 C 311.317 106.860,299.723 106.554,297.574 95.631 C 297.229 93.876,296.563 92.321,295.436 90.641 L 293.800 88.200 287.600 87.563 C 281.417 86.928,281.398 86.929,280.698 87.763 C 279.575 89.101,277.200 94.023,277.200 95.012 C 277.200 99.210,274.701 102.741,270.961 103.829 L 268.775 104.464 266.198 103.258 C 263.072 101.795,260.435 99.186,258.951 96.087 C 256.965 91.943,256.622 91.603,254.896 92.078 C 251.951 92.888,250.366 93.676,250.733 94.147 C 251.426 95.039,251.967 98.293,252.373 104.005 C 252.793 109.924,253.666 115.870,254.398 117.794 C 255.072 119.569,251.524 123.231,246.809 125.627 L 244.274 126.915 237.037 126.677 C 230.182 126.452,224.259 125.787,219.805 124.743 C 213.313 123.220,211.442 116.654,216.259 112.301 C 217.051 111.585,218.097 110.632,218.585 110.183 C 219.732 109.125,220.408 107.148,222.179 99.672 L 223.630 93.543 222.840 92.272 C 221.624 90.314,218.862 87.777,218.427 88.219 C 217.272 89.395,215.174 93.599,214.772 95.545 C 212.427 106.886,201.926 107.034,196.571 95.803 C 194.597 91.664,194.250 91.290,191.200 90.014 C 188.706 88.971,185.381 86.925,182.953 84.938 C 181.688 83.903,181.215 83.707,180.914 84.095 M43.199 85.919 C 42.917 86.514,42.189 88.523,41.581 90.383 L 40.475 93.767 42.053 96.905 C 43.760 100.301,43.792 100.316,46.450 98.965 C 47.483 98.440,48.800 95.920,48.800 94.470 C 48.800 92.526,43.733 84.791,43.199 85.919 M142.829 89.984 C 141.352 95.457,144.261 97.974,148.400 94.805 L 149.400 94.039 147.526 92.120 C 146.495 91.064,145.213 89.422,144.677 88.471 L 143.703 86.742 142.829 89.984 M188.763 140.909 C 184.150 143.568,183.757 143.885,184.103 144.661 C 185.823 148.516,199.770 146.602,198.989 142.618 C 197.936 137.248,195.748 136.882,188.763 140.909 M291.288 140.425 C 288.627 140.949,285.300 143.117,286.091 143.810 C 287.939 145.432,294.284 147.453,296.058 146.985 C 300.928 145.700,300.987 143.209,296.200 140.951 C 294.045 139.935,293.870 139.916,291.288 140.425 M180.440 150.135 C 179.131 152.254,176.148 154.715,173.937 155.500 C 172.124 156.144,171.369 156.996,172.500 157.123 C 182.009 158.190,182.996 157.791,182.566 153.047 C 182.196 148.961,181.638 148.197,180.440 150.135 M304.677 151.115 C 300.397 155.844,305.370 161.880,310.203 157.822 L 311.765 156.511 310.632 155.156 C 306.612 150.343,305.846 149.823,304.677 151.115 M167.423 160.700 C 166.642 162.185,165.147 164.460,164.101 165.755 C 163.056 167.051,162.040 168.325,161.845 168.587 C 161.119 169.561,162.489 171.334,164.400 171.895 C 169.538 173.401,171.305 171.404,171.032 164.400 C 170.815 158.840,170.793 158.676,170.239 158.306 C 169.293 157.673,168.791 158.100,167.423 160.700 M265.200 166.398 C 257.564 167.970,257.417 168.513,264.071 170.577 C 269.412 172.234,271.125 172.126,273.852 169.958 L 275.291 168.815 272.146 167.365 C 270.415 166.568,268.910 165.867,268.800 165.807 C 268.690 165.747,267.070 166.013,265.200 166.398 M216.289 166.591 C 215.458 166.907,213.298 167.473,211.489 167.848 C 207.421 168.693,207.033 169.004,209.013 169.831 C 213.298 171.622,225.955 170.707,226.058 168.600 C 226.126 167.203,218.699 165.675,216.289 166.591 M280.562 179.829 C 279.629 182.063,280.444 182.777,283.010 181.974 L 284.843 181.400 283.012 179.873 L 281.182 178.345 280.562 179.829 M193.244 180.547 C 192.994 180.848,192.613 183.404,192.398 186.228 C 192.182 189.051,191.899 191.929,191.769 192.625 C 191.571 193.680,191.715 194.033,192.642 194.762 L 193.753 195.635 194.262 194.718 C 194.542 194.213,194.778 193.387,194.786 192.883 C 194.850 188.722,197.036 183.051,198.975 182.013 C 200.367 181.268,199.900 180.927,196.800 180.426 C 193.564 179.903,193.785 179.896,193.244 180.547 M292.830 187.660 C 291.993 188.559,290.800 191.854,290.800 193.270 C 290.800 193.668,291.457 195.637,292.261 197.645 L 293.722 201.295 294.665 199.748 C 295.184 198.896,295.904 197.270,296.266 196.134 L 296.924 194.069 295.415 190.534 C 294.584 188.590,293.854 186.943,293.793 186.874 C 293.731 186.804,293.298 187.158,292.830 187.660 M242.857 192.939 L 241.953 193.901 242.904 195.007 L 243.855 196.112 245.897 195.434 C 249.055 194.385,249.247 193.811,246.717 192.980 C 245.553 192.597,244.411 192.214,244.181 192.130 C 243.950 192.046,243.355 192.409,242.857 192.939 M180.788 204.631 C 178.213 211.404,178.703 240.058,181.401 240.506 C 184.265 240.981,185.856 221.978,183.987 209.618 C 183.292 205.022,181.627 202.426,180.788 204.631 M268.152 210.717 C 267.357 211.228,266.473 213.390,266.005 215.972 L 265.545 218.510 267.054 220.055 C 268.900 221.946,268.862 221.945,270.311 220.100 L 271.489 218.600 270.310 214.800 C 269.033 210.687,268.821 210.287,268.152 210.717 M293.194 244.264 C 292.249 248.865,291.133 253.028,290.399 254.692 L 289.652 256.383 290.691 257.200 C 293.148 259.133,295.620 258.061,295.585 255.078 C 295.476 245.677,294.142 239.646,293.194 244.264 M192.251 251.677 C 190.523 254.625,190.514 256.221,192.206 258.898 C 193.801 261.421,194.289 261.484,195.941 259.384 C 197.467 257.444,197.419 256.263,195.686 253.111 C 193.756 249.601,193.524 249.504,192.251 251.677 M279.200 265.033 C 278.210 265.792,276.545 266.905,275.500 267.506 C 273.169 268.849,273.155 269.048,275.332 270.011 C 278.761 271.528,281.281 271.503,282.993 269.934 L 284.482 268.570 283.822 266.990 C 282.372 263.520,281.600 263.193,279.200 265.033 M204.200 265.861 C 202.942 266.521,201.622 267.919,201.612 268.600 C 201.609 268.820,202.685 269.695,204.003 270.544 L 206.399 272.087 208.099 271.412 C 209.755 270.754,211.600 269.359,211.600 268.766 C 211.600 268.356,206.535 265.196,205.910 265.216 C 205.629 265.225,204.860 265.515,204.200 265.861 M226.200 278.046 C 219.955 278.429,218.876 278.692,218.202 279.996 C 217.366 281.613,217.815 281.832,224.019 282.825 C 237.642 285.006,262.678 284.028,265.740 281.195 C 266.192 280.776,263.049 278.984,260.843 278.402 C 258.900 277.889,233.070 277.624,226.200 278.046 " stroke="none" fill="#12100d" fill-rule="evenodd"></path><path id="path4" d="M72.619 19.245 C 66.909 20.077,65.057 22.658,64.833 30.093 C 64.806 30.997,64.438 31.370,62.709 32.246 C 57.784 34.742,57.361 34.800,44.121 34.800 C 26.380 34.800,24.212 35.369,17.809 41.700 C 10.709 48.719,11.215 43.792,11.207 105.885 L 11.200 157.170 12.062 159.485 C 13.259 162.700,14.435 164.094,17.189 165.562 C 19.742 166.922,20.559 167.785,22.530 171.200 C 23.628 173.103,24.177 173.589,26.590 174.800 L 29.381 176.200 86.590 176.322 C 147.148 176.451,146.498 176.468,153.083 174.563 C 160.129 172.525,161.469 175.352,159.258 187.600 C 158.762 190.350,157.923 195.113,157.394 198.184 C 156.532 203.183,156.320 203.854,155.373 204.584 C 151.637 207.464,149.908 210.181,148.575 215.268 C 147.914 217.786,147.920 218.898,148.633 227.400 C 149.114 233.136,151.293 237.115,155.118 239.246 C 156.591 240.067,156.827 240.996,158.410 252.222 C 160.112 264.297,161.131 266.856,164.705 268.034 C 167.444 268.936,168.711 270.045,169.231 271.998 C 169.495 272.989,170.706 275.945,171.922 278.566 C 173.138 281.188,174.133 283.576,174.133 283.872 C 174.133 284.995,176.763 287.477,178.677 288.161 C 179.735 288.539,181.050 289.117,181.600 289.445 C 183.676 290.683,189.763 293.600,190.271 293.600 C 190.562 293.600,190.800 293.827,190.800 294.104 C 190.800 294.382,191.440 295.327,192.223 296.204 C 193.005 297.082,194.074 298.453,194.597 299.252 C 196.366 301.950,197.054 302.196,210.000 304.772 C 215.105 305.787,216.321 306.164,216.887 306.903 C 217.265 307.396,218.075 308.460,218.687 309.266 C 221.389 312.826,226.514 314.533,236.179 315.092 C 244.168 315.554,245.676 315.490,252.721 314.391 C 260.536 313.171,265.091 310.892,266.968 307.262 C 267.498 306.237,267.972 306.063,273.470 304.884 C 283.910 302.646,284.785 302.424,286.363 301.619 C 288.738 300.407,290.597 298.407,291.399 296.200 C 292.394 293.463,293.177 292.747,295.598 292.365 C 301.051 291.503,305.113 289.195,305.768 286.586 C 306.093 285.288,307.000 285.339,308.393 286.732 C 309.812 288.150,310.028 289.736,310.127 299.416 L 310.200 306.633 311.600 308.952 C 312.984 311.244,315.682 313.615,317.570 314.198 C 319.182 314.697,322.323 317.961,323.352 320.207 C 324.577 322.883,327.097 325.414,329.742 326.625 C 332.253 327.775,334.828 330.352,336.006 332.894 C 337.161 335.390,339.476 337.725,342.086 339.028 C 344.917 340.441,347.025 342.519,348.433 345.285 C 349.886 348.139,351.821 350.098,354.513 351.440 C 356.588 352.475,360.391 355.793,360.410 356.585 C 360.462 358.752,366.208 363.200,368.955 363.200 C 374.163 363.200,383.233 360.152,385.027 357.800 C 386.267 356.174,385.588 352.693,383.552 350.238 C 381.949 348.304,380.407 346.131,380.404 345.800 C 380.376 343.186,375.502 336.826,371.138 333.709 C 368.977 332.166,367.622 330.869,367.052 329.800 C 365.627 327.124,363.960 324.345,361.960 321.314 C 360.283 318.770,360.095 318.271,360.373 317.114 C 360.547 316.391,360.922 314.810,361.206 313.600 C 361.820 310.985,362.126 310.384,364.097 307.928 C 365.535 306.137,365.990 304.688,365.258 304.236 C 365.070 304.119,365.003 304.483,365.110 305.044 C 365.265 305.850,365.006 306.310,363.878 307.240 C 362.147 308.667,360.716 311.601,359.833 315.536 L 359.174 318.472 361.366 321.736 C 362.571 323.531,364.422 326.521,365.479 328.380 C 367.071 331.182,367.879 332.122,370.200 333.875 C 374.475 337.103,377.043 340.112,378.843 344.000 C 380.565 347.721,380.738 348.044,382.827 351.464 C 386.652 357.724,385.073 359.368,372.666 362.042 C 367.543 363.147,363.576 361.408,361.335 357.075 C 360.315 355.102,357.532 352.379,355.464 351.331 C 352.958 350.061,349.952 347.063,348.668 344.552 C 347.492 342.253,345.249 340.002,342.963 338.827 C 340.295 337.455,338.099 335.309,336.419 332.433 C 334.688 329.469,332.509 327.280,330.029 326.015 C 327.574 324.762,325.722 322.945,324.155 320.249 C 322.259 316.989,320.729 315.444,317.553 313.580 C 311.538 310.050,310.590 307.907,311.080 298.954 C 311.569 290.037,313.567 286.198,318.345 284.999 C 321.140 284.298,324.668 282.166,327.652 279.376 C 329.468 277.677,331.213 276.380,331.717 276.353 C 332.203 276.327,333.635 276.293,334.900 276.278 C 336.165 276.262,337.200 276.119,337.200 275.960 C 337.200 275.801,335.805 275.672,334.100 275.674 C 330.490 275.677,329.549 276.124,325.949 279.546 C 321.659 283.623,315.674 284.817,312.988 282.131 C 312.403 281.545,312.468 281.394,313.761 280.328 C 315.403 278.975,315.830 277.709,316.440 272.400 C 317.010 267.439,317.877 265.988,320.703 265.264 C 326.650 263.739,327.960 260.990,328.411 249.084 C 328.596 244.198,328.856 239.480,328.989 238.600 C 329.122 237.720,329.569 232.913,329.983 227.919 L 330.735 218.837 329.805 212.319 C 329.293 208.733,328.758 203.280,328.616 200.200 C 328.207 191.315,327.141 186.522,324.779 182.943 C 324.177 182.031,323.556 180.501,323.399 179.543 C 323.015 177.204,322.233 176.400,320.341 176.400 L 318.806 176.400 316.981 172.500 C 314.760 167.754,315.577 163.200,318.650 163.200 C 319.239 163.200,323.997 168.273,324.010 168.915 C 324.059 171.396,324.596 173.919,325.210 174.558 C 326.975 176.395,366.674 177.256,371.713 175.566 C 374.974 174.472,376.374 173.359,377.767 170.748 C 379.313 167.852,380.186 166.961,382.887 165.521 C 385.566 164.093,386.749 162.680,387.938 159.485 L 388.800 157.170 388.793 105.885 C 388.786 50.996,388.815 51.862,386.810 47.329 C 385.647 44.700,379.110 38.277,376.304 37.007 C 371.139 34.669,378.326 34.802,255.317 34.784 C 131.045 34.765,132.684 34.795,129.472 32.537 L 127.810 31.369 127.354 27.585 C 126.700 22.155,125.903 20.552,123.384 19.594 C 121.562 18.901,120.989 19.119,122.176 20.053 C 123.797 21.328,124.124 22.257,124.941 27.900 C 125.536 32.008,125.829 32.493,128.914 34.473 C 132.527 36.792,130.980 36.764,255.862 36.783 L 368.323 36.800 371.103 37.740 C 374.896 39.024,377.283 40.772,379.262 43.717 C 380.180 45.083,381.552 46.898,382.310 47.751 C 383.069 48.604,384.254 50.494,384.945 51.951 L 386.200 54.600 386.200 105.600 L 386.200 156.600 385.048 158.523 C 384.415 159.581,383.067 161.111,382.052 161.923 C 379.732 163.780,376.710 166.809,374.471 169.521 C 371.182 173.505,370.550 173.662,356.793 173.905 C 343.637 174.137,332.537 173.362,330.264 172.054 C 329.640 171.694,328.270 170.223,327.221 168.784 C 324.414 164.935,321.058 161.449,318.567 159.796 C 317.359 158.994,315.927 157.635,315.385 156.776 C 313.971 154.537,307.416 146.983,305.955 145.908 C 305.275 145.409,304.305 144.190,303.799 143.200 C 302.050 139.777,300.303 138.792,294.254 137.819 C 288.119 136.832,285.700 135.352,283.666 131.343 C 283.012 130.054,281.667 127.797,280.677 126.326 C 277.226 121.199,276.738 119.019,278.396 116.128 C 280.268 112.864,280.445 112.800,287.638 112.800 L 293.898 112.800 295.551 114.593 C 296.460 115.580,297.641 117.375,298.175 118.582 C 299.497 121.572,301.347 124.196,303.899 126.702 L 306.039 128.803 308.520 127.138 C 319.592 119.703,321.838 116.639,324.659 105.127 C 326.143 99.074,326.910 97.213,328.823 95.035 L 330.041 93.648 329.046 92.073 C 327.555 89.710,324.822 88.297,320.124 87.457 C 318.501 87.168,316.107 89.663,313.804 94.045 C 308.896 103.385,303.454 103.440,299.632 94.190 C 296.070 85.570,295.076 84.736,287.263 83.809 L 281.125 83.080 280.160 84.240 C 279.063 85.557,275.625 92.412,274.581 95.361 C 273.815 97.526,271.679 100.132,269.930 101.036 C 267.870 102.101,264.466 99.506,260.965 94.200 C 259.803 92.440,258.256 90.427,257.526 89.726 L 256.200 88.452 249.885 88.326 L 243.569 88.200 242.785 90.742 C 242.353 92.140,242.002 93.400,242.005 93.542 C 242.008 93.684,243.004 94.424,244.219 95.187 C 248.878 98.112,250.633 103.269,250.277 112.980 L 250.056 119.000 248.528 120.305 C 243.963 124.202,233.903 125.094,224.000 122.480 C 216.419 120.479,215.566 119.333,218.858 115.564 C 220.770 113.374,221.818 110.931,223.133 105.600 C 223.811 102.850,224.887 99.070,225.524 97.200 C 227.128 92.488,225.744 88.934,221.083 85.796 C 218.466 84.033,218.752 83.962,216.660 86.900 C 214.945 89.309,214.391 90.362,212.268 95.248 C 211.126 97.879,208.892 100.499,207.191 101.204 C 205.244 102.010,200.965 98.663,199.000 94.794 C 197.048 90.953,194.610 88.250,191.617 86.609 C 190.055 85.753,187.657 84.131,186.288 83.004 C 182.223 79.659,181.418 79.281,180.364 80.223 C 179.591 80.914,175.829 88.193,172.662 95.126 C 171.972 96.637,170.987 98.027,170.160 98.658 L 168.796 99.698 165.298 98.022 C 155.400 93.279,149.796 89.069,147.200 84.429 C 143.241 77.351,141.610 78.732,139.566 90.891 L 139.060 93.903 140.947 96.547 C 142.055 98.100,143.651 99.726,144.815 100.488 C 147.306 102.119,147.830 103.249,151.823 115.600 C 153.885 121.978,154.613 122.645,162.460 125.352 L 168.720 127.512 170.335 125.856 C 172.483 123.655,174.564 120.115,175.605 116.892 C 176.581 113.873,178.266 111.234,180.015 109.989 L 181.228 109.126 184.168 110.808 C 185.785 111.733,188.803 113.797,190.875 115.395 L 194.643 118.300 195.502 122.050 C 195.975 124.112,196.583 127.137,196.852 128.772 L 197.341 131.743 195.530 133.372 C 194.534 134.267,191.398 136.331,188.560 137.957 C 180.698 142.462,179.871 143.077,178.596 145.354 C 177.075 148.072,173.918 151.107,170.984 152.672 C 168.045 154.239,167.023 155.337,164.772 159.345 C 160.759 166.490,155.749 170.469,147.597 172.984 L 144.194 174.034 87.797 173.917 L 31.400 173.800 29.310 172.698 C 27.860 171.934,26.411 170.618,24.575 168.399 C 23.120 166.640,20.654 164.166,19.096 162.901 C 17.538 161.635,15.709 159.700,15.032 158.600 L 13.800 156.600 13.800 105.600 L 13.800 54.600 15.041 51.981 C 15.724 50.541,16.887 48.673,17.626 47.832 C 18.365 46.990,19.786 45.128,20.785 43.694 C 25.016 37.615,26.907 37.058,44.200 36.802 L 57.800 36.600 61.077 35.252 C 62.880 34.511,65.220 33.339,66.277 32.648 L 68.200 31.391 68.531 27.596 C 68.713 25.508,69.028 23.740,69.231 23.667 C 69.434 23.593,69.600 23.306,69.600 23.029 C 69.600 21.395,72.927 19.619,77.000 19.079 C 77.919 18.957,77.826 18.917,76.600 18.909 C 75.720 18.903,73.929 19.054,72.619 19.245 M112.900 19.076 C 113.285 19.176,113.915 19.176,114.300 19.076 C 114.685 18.975,114.370 18.893,113.600 18.893 C 112.830 18.893,112.515 18.975,112.900 19.076 M86.299 19.891 C 88.561 21.160,89.881 23.936,90.251 28.200 C 90.529 31.405,90.536 31.421,92.280 32.526 L 93.800 33.488 97.399 32.525 C 101.819 31.343,101.798 31.362,102.159 27.999 C 102.218 27.448,102.491 26.577,102.766 26.064 C 103.040 25.551,103.169 25.035,103.051 24.918 C 102.825 24.692,103.224 24.195,105.308 22.101 C 106.444 20.960,108.407 20.053,111.000 19.472 C 113.230 18.972,107.626 19.288,104.370 19.846 C 99.521 20.676,95.200 22.983,95.200 24.743 C 95.200 24.994,95.009 25.200,94.776 25.200 C 94.543 25.200,94.428 25.335,94.521 25.500 C 94.613 25.665,94.452 26.340,94.162 27.000 C 93.647 28.176,93.635 28.180,93.588 27.200 C 93.471 24.752,92.289 21.600,91.488 21.600 C 91.256 21.600,91.186 21.481,91.332 21.335 C 91.836 20.831,89.226 19.631,87.117 19.397 L 85.000 19.162 86.299 19.891 M79.480 80.080 C 78.556 81.041,76.918 83.391,75.839 85.304 C 74.761 87.217,72.749 90.194,71.368 91.921 L 68.856 95.059 65.728 95.902 C 54.093 99.038,55.685 99.905,47.807 86.149 C 43.371 78.403,42.797 78.411,40.273 86.244 C 37.629 94.453,38.592 98.607,44.542 104.645 C 47.536 107.684,49.167 110.726,50.396 115.565 C 51.444 119.692,52.362 121.542,54.528 123.894 L 56.200 125.708 62.516 125.431 L 68.831 125.154 70.218 123.677 C 71.527 122.282,72.638 120.253,74.845 115.223 C 75.936 112.735,77.893 110.232,79.826 108.853 L 81.153 107.906 82.567 108.780 C 84.680 110.086,88.149 114.115,89.757 117.132 C 92.211 121.737,93.059 122.413,99.878 125.210 C 103.221 126.581,106.224 127.600,106.550 127.474 C 108.332 126.791,112.150 120.700,113.264 116.765 C 114.260 113.244,115.936 110.435,118.028 108.777 C 120.265 107.006,124.806 96.869,124.797 93.668 C 124.788 90.410,120.304 80.800,118.793 80.800 C 118.095 80.800,112.639 90.382,110.999 94.487 C 109.951 97.111,107.478 100.008,106.299 99.994 C 102.682 99.954,89.852 89.472,85.772 83.225 C 84.830 81.781,83.406 80.090,82.609 79.467 L 81.160 78.334 79.480 80.080 M85.579 88.219 C 92.597 97.514,102.481 103.773,109.702 103.494 C 114.186 103.321,114.000 103.556,114.000 98.061 L 114.000 93.370 116.159 89.599 C 118.818 84.954,118.773 84.968,120.494 88.286 C 123.092 93.292,123.090 93.225,120.897 98.641 L 118.971 103.400 117.185 103.469 C 116.203 103.507,115.183 103.552,114.918 103.569 C 114.653 103.586,114.318 104.232,114.173 105.004 C 114.028 105.777,113.747 106.509,113.549 106.632 C 112.356 107.369,111.403 110.531,110.787 115.793 C 110.455 118.638,110.212 119.282,108.564 121.693 C 106.332 124.961,107.100 124.943,99.746 121.903 L 93.693 119.400 92.010 115.800 C 90.481 112.532,89.915 111.803,85.872 107.900 C 80.711 102.918,81.277 103.129,78.907 105.300 C 74.014 109.781,73.349 110.790,71.961 115.848 C 70.253 122.073,70.160 122.128,60.498 122.574 L 55.996 122.782 54.636 120.691 C 53.556 119.032,53.218 118.022,52.996 115.800 C 52.843 114.260,52.306 111.380,51.803 109.400 C 50.369 103.748,51.209 102.694,58.000 101.624 C 70.414 99.668,72.328 98.854,73.604 94.988 C 73.851 94.239,74.872 92.405,75.873 90.913 C 76.874 89.421,78.499 86.595,79.484 84.632 L 81.276 81.065 82.606 83.553 C 83.337 84.921,84.675 87.021,85.579 88.219 M186.800 87.690 C 188.010 88.462,189.990 89.508,191.200 90.014 C 194.250 91.290,194.597 91.664,196.571 95.803 C 201.926 107.034,212.427 106.886,214.772 95.545 C 215.174 93.599,217.272 89.395,218.427 88.219 C 218.862 87.777,221.624 90.314,222.840 92.272 L 223.630 93.543 222.179 99.672 C 220.408 107.148,219.732 109.125,218.585 110.183 C 218.097 110.632,217.051 111.585,216.259 112.301 C 211.442 116.654,213.313 123.220,219.805 124.743 C 224.259 125.787,230.182 126.452,237.037 126.677 L 244.274 126.915 246.809 125.627 C 251.524 123.231,255.072 119.569,254.398 117.794 C 253.666 115.870,252.793 109.924,252.373 104.005 C 251.967 98.293,251.426 95.039,250.733 94.147 C 250.366 93.676,251.951 92.888,254.896 92.078 C 256.622 91.603,256.965 91.943,258.951 96.087 C 260.435 99.186,263.072 101.795,266.198 103.258 L 268.775 104.464 270.961 103.829 C 274.701 102.741,277.200 99.210,277.200 95.012 C 277.200 94.023,279.575 89.101,280.698 87.763 C 281.398 86.929,281.417 86.928,287.600 87.563 L 293.800 88.200 295.436 90.641 C 296.563 92.321,297.229 93.876,297.574 95.631 C 299.723 106.554,311.317 106.860,315.626 96.107 C 317.779 90.735,318.450 90.263,321.471 91.995 C 324.014 93.454,324.064 93.533,323.574 95.309 C 323.356 96.098,322.939 99.150,322.646 102.090 C 321.752 111.081,317.996 116.964,309.200 123.146 L 306.200 125.255 304.337 123.193 C 302.249 120.881,301.074 118.718,300.365 115.881 C 299.714 113.277,298.044 111.097,295.945 110.111 C 293.154 108.801,281.578 108.385,279.373 109.516 C 273.641 112.455,272.926 121.480,277.813 129.221 C 281.136 134.484,273.947 135.454,247.800 133.272 C 243.991 132.954,240.268 133.110,221.271 134.385 C 217.901 134.611,213.311 135.194,211.071 135.680 C 203.254 137.378,200.400 136.145,200.400 131.073 C 200.400 127.723,198.688 118.488,197.778 116.931 C 196.418 114.604,183.118 105.600,181.041 105.600 C 177.237 105.600,174.169 109.580,173.179 115.800 C 172.647 119.148,172.299 119.929,170.123 122.669 L 168.797 124.338 162.801 122.335 C 155.304 119.831,155.637 120.152,153.558 113.400 C 149.708 100.895,151.885 95.640,159.361 99.392 C 170.795 105.130,176.000 103.798,176.000 95.134 C 176.000 94.072,179.808 85.518,180.914 84.095 C 181.215 83.707,181.688 83.903,182.953 84.938 C 183.859 85.679,185.590 86.917,186.800 87.690 M48.800 94.470 C 48.800 95.920,47.483 98.440,46.450 98.965 C 43.792 100.316,43.760 100.301,42.053 96.905 L 40.475 93.767 41.581 90.383 C 43.639 84.088,43.325 84.161,46.256 89.297 C 47.655 91.750,48.800 94.078,48.800 94.470 M147.526 92.120 L 149.400 94.039 148.400 94.805 C 144.261 97.974,141.352 95.457,142.829 89.984 L 143.703 86.742 144.677 88.471 C 145.213 89.422,146.495 91.064,147.526 92.120 M253.000 137.420 C 268.481 138.882,272.036 139.787,275.521 143.155 C 276.807 144.398,278.656 145.750,279.630 146.160 C 289.441 150.289,293.839 153.001,297.209 157.000 C 300.549 160.963,301.393 161.746,305.400 164.600 C 308.899 167.093,310.115 168.908,314.838 178.692 C 316.075 181.255,317.606 183.674,318.935 185.163 C 323.523 190.304,323.924 191.657,325.582 207.600 C 326.876 220.037,326.853 223.499,325.377 238.200 C 323.780 254.118,323.330 255.641,318.998 259.800 C 315.269 263.380,314.012 265.203,312.867 268.691 C 311.289 273.498,310.251 274.904,306.674 277.076 C 304.783 278.225,303.942 279.117,302.193 281.828 C 299.740 285.631,298.139 286.948,293.995 288.574 C 291.026 289.739,290.207 290.414,285.512 295.564 C 282.745 298.599,280.108 299.529,266.200 302.379 C 259.605 303.731,252.700 305.617,250.853 306.573 C 250.200 306.910,248.323 307.625,246.681 308.161 L 243.697 309.135 240.349 308.388 C 238.507 307.978,235.290 307.075,233.200 306.382 C 226.404 304.128,224.330 303.598,215.200 301.780 C 202.840 299.318,201.563 298.709,197.131 293.161 C 196.082 291.847,194.709 290.829,192.331 289.601 C 183.065 284.816,177.376 279.011,173.047 269.924 C 171.442 266.554,170.900 265.815,168.900 264.268 C 163.882 260.387,163.444 259.419,161.761 248.478 C 161.027 243.705,159.969 237.460,159.411 234.600 C 157.802 226.346,156.859 218.756,157.300 217.600 C 158.643 214.083,160.194 206.324,161.378 197.200 C 162.519 188.406,164.978 182.272,168.855 178.545 C 171.792 175.721,173.623 172.992,175.180 169.116 C 176.718 165.290,177.940 163.844,180.899 162.350 C 184.395 160.585,185.796 159.365,187.801 156.340 C 189.702 153.472,191.071 152.292,193.485 151.441 C 196.209 150.480,201.384 147.715,204.660 145.472 C 211.196 140.995,215.942 139.207,224.000 138.183 C 230.926 137.303,242.476 136.456,244.800 136.659 C 245.790 136.745,249.480 137.087,253.000 137.420 M197.238 138.916 C 198.022 139.406,198.598 140.623,198.989 142.618 C 199.770 146.602,185.823 148.516,184.103 144.661 C 183.757 143.885,184.150 143.568,188.763 140.909 C 194.028 137.874,195.147 137.611,197.238 138.916 M296.200 140.951 C 300.987 143.209,300.928 145.700,296.058 146.985 C 294.284 147.453,287.939 145.432,286.091 143.810 C 285.300 143.117,288.627 140.949,291.288 140.425 C 293.870 139.916,294.045 139.935,296.200 140.951 M182.566 153.047 C 182.996 157.791,182.009 158.190,172.500 157.123 C 171.369 156.996,172.124 156.144,173.937 155.500 C 176.148 154.715,179.131 152.254,180.440 150.135 C 181.638 148.197,182.196 148.961,182.566 153.047 M307.942 152.100 C 308.799 153.035,310.009 154.410,310.632 155.156 L 311.765 156.511 310.203 157.822 C 306.400 161.015,301.544 157.781,303.415 153.302 C 304.805 149.976,305.762 149.722,307.942 152.100 M237.000 154.233 C 232.983 154.980,230.935 155.605,228.000 156.981 C 225.910 157.960,223.030 159.053,221.600 159.408 C 220.170 159.764,217.470 160.653,215.600 161.385 C 213.730 162.117,210.753 163.158,208.984 163.699 C 204.771 164.989,202.671 166.364,201.026 168.914 C 199.314 171.566,197.573 173.195,194.798 174.740 C 191.104 176.796,189.393 178.940,187.566 183.800 C 186.398 186.906,184.546 189.708,182.026 192.181 C 175.850 198.244,173.523 218.665,176.646 239.400 C 177.456 244.774,178.352 246.670,181.677 250.042 C 183.696 252.089,184.694 253.599,186.675 257.600 C 191.509 267.364,194.623 270.527,205.168 276.382 C 207.847 277.870,209.605 279.203,211.355 281.073 C 215.086 285.061,216.903 285.814,225.070 286.761 C 239.222 288.400,243.015 288.527,251.400 287.638 C 267.678 285.913,270.416 285.090,273.832 280.897 C 276.026 278.204,277.053 277.462,281.600 275.286 C 285.367 273.483,287.573 271.575,289.974 268.039 C 290.854 266.742,292.203 265.293,292.970 264.818 C 296.394 262.702,298.840 258.977,300.352 253.576 C 301.425 249.745,302.461 247.588,304.610 244.714 C 311.778 235.128,312.427 212.268,305.818 202.205 C 304.865 200.754,303.690 198.450,303.207 197.084 C 299.154 185.624,295.540 179.282,291.771 177.014 C 289.069 175.388,285.773 172.221,284.153 169.695 C 283.411 168.538,282.218 167.233,281.502 166.796 C 278.937 165.231,269.305 161.199,267.174 160.798 C 263.735 160.151,258.767 158.436,256.744 157.197 C 250.982 153.671,244.915 152.760,237.000 154.233 M170.239 158.306 C 170.793 158.676,170.815 158.840,171.032 164.400 C 171.305 171.404,169.538 173.401,164.400 171.895 C 162.489 171.334,161.119 169.561,161.845 168.587 C 162.040 168.325,163.056 167.051,164.101 165.755 C 165.147 164.460,166.642 162.185,167.423 160.700 C 168.791 158.100,169.293 157.673,170.239 158.306 M272.146 167.365 L 275.291 168.815 273.852 169.958 C 271.125 172.126,269.412 172.234,264.071 170.577 C 258.474 168.840,258.175 168.621,260.229 167.758 C 261.781 167.106,268.413 165.596,268.800 165.807 C 268.910 165.867,270.415 166.568,272.146 167.365 M223.890 167.321 C 226.833 168.504,226.658 168.815,222.319 170.110 C 218.160 171.351,212.361 171.230,209.013 169.831 C 207.033 169.004,207.421 168.693,211.489 167.848 C 213.298 167.473,215.458 166.907,216.289 166.591 C 218.179 165.873,220.949 166.138,223.890 167.321 M252.000 176.205 C 261.558 177.265,270.169 180.029,270.639 182.189 C 271.644 186.801,274.165 189.545,278.600 190.856 C 281.659 191.761,282.964 192.885,283.362 194.959 C 283.493 195.641,284.307 198.810,285.172 202.000 C 290.250 220.744,287.727 245.639,280.184 251.212 C 279.042 252.055,277.423 253.679,276.584 254.821 C 274.811 257.238,269.783 261.106,267.664 261.684 C 263.978 262.689,260.331 264.985,258.147 267.674 C 256.810 269.320,256.293 269.505,249.983 270.591 L 243.765 271.661 237.285 270.823 C 229.877 269.865,229.296 269.671,226.692 267.295 C 225.643 266.337,223.393 264.895,221.692 264.091 C 219.991 263.287,217.340 261.895,215.800 260.998 C 214.260 260.101,211.830 258.874,210.400 258.270 C 205.965 256.400,206.062 256.495,204.425 252.394 C 203.590 250.300,202.368 247.510,201.709 246.194 C 201.051 244.877,200.102 242.540,199.600 241.000 C 198.486 237.579,196.791 234.126,195.436 232.515 C 194.027 230.841,193.741 229.919,193.225 225.375 C 192.977 223.189,192.703 220.827,192.616 220.126 C 192.441 218.707,193.400 214.123,194.032 213.361 C 194.400 212.918,197.480 207.094,199.863 202.337 C 200.376 201.312,201.238 198.822,201.778 196.802 C 202.980 192.312,204.646 190.042,207.851 188.524 C 210.264 187.381,212.811 184.985,214.126 182.619 C 215.375 180.371,217.909 178.560,220.265 178.231 C 221.329 178.083,224.720 177.525,227.800 176.992 C 238.225 175.188,241.791 175.072,252.000 176.205 M283.010 181.974 C 280.444 182.777,279.629 182.063,280.562 179.829 L 281.182 178.345 283.012 179.873 L 284.843 181.400 283.010 181.974 M196.800 180.426 C 199.900 180.927,200.367 181.268,198.975 182.013 C 197.036 183.051,194.850 188.722,194.786 192.883 C 194.778 193.387,194.542 194.213,194.262 194.718 L 193.753 195.635 192.642 194.762 C 191.715 194.033,191.571 193.680,191.769 192.625 C 191.899 191.929,192.182 189.051,192.398 186.228 C 192.748 181.646,193.159 179.994,193.949 180.003 C 194.087 180.005,195.370 180.195,196.800 180.426 M240.626 186.221 C 237.573 187.735,234.415 191.527,234.404 193.696 C 234.386 196.986,238.580 202.798,242.364 204.726 C 244.154 205.638,244.795 206.276,246.071 208.414 C 247.933 211.535,250.486 213.925,253.534 215.400 C 256.652 216.908,257.022 217.304,258.749 220.977 C 262.723 229.431,269.897 231.329,275.182 225.325 C 278.686 221.345,278.870 218.926,276.552 207.400 C 275.252 200.941,274.377 199.543,270.298 197.411 C 266.629 195.493,265.856 194.773,264.452 191.962 C 262.612 188.281,259.989 187.130,250.400 185.798 C 244.613 184.994,242.956 185.066,240.626 186.221 M295.415 190.534 L 296.924 194.069 296.266 196.134 C 295.904 197.270,295.184 198.896,294.665 199.748 L 293.722 201.295 292.261 197.645 C 290.606 193.511,290.579 193.289,291.390 190.559 C 291.895 188.859,293.445 186.481,293.793 186.874 C 293.854 186.943,294.584 188.590,295.415 190.534 M246.717 192.980 C 249.247 193.811,249.055 194.385,245.897 195.434 L 243.855 196.112 242.904 195.007 L 241.953 193.901 242.857 192.939 C 243.355 192.409,243.950 192.046,244.181 192.130 C 244.411 192.214,245.553 192.597,246.717 192.980 M182.994 205.589 C 186.169 211.728,184.830 241.075,181.401 240.506 C 179.485 240.188,178.251 221.161,179.537 211.774 C 180.711 203.214,181.259 202.233,182.994 205.589 M270.310 214.800 L 271.489 218.600 270.311 220.100 C 268.862 221.945,268.900 221.946,267.054 220.055 L 265.545 218.510 266.005 215.972 C 267.195 209.407,268.524 209.046,270.310 214.800 M295.223 248.722 C 295.724 256.048,295.713 256.224,294.669 257.438 C 293.610 258.669,292.472 258.601,290.691 257.200 L 289.652 256.383 290.399 254.692 C 291.133 253.028,292.249 248.865,293.194 244.264 C 293.961 240.529,294.787 242.343,295.223 248.722 M195.686 253.111 C 197.419 256.263,197.467 257.444,195.941 259.384 C 194.289 261.484,193.801 261.421,192.206 258.898 C 190.514 256.221,190.523 254.625,192.251 251.677 C 193.524 249.504,193.756 249.601,195.686 253.111 M282.311 264.505 C 282.779 265.003,283.459 266.122,283.822 266.990 L 284.482 268.570 282.993 269.934 C 281.281 271.503,278.761 271.528,275.332 270.011 C 273.155 269.048,273.169 268.849,275.500 267.506 C 276.545 266.905,278.210 265.792,279.200 265.033 C 281.374 263.367,281.260 263.386,282.311 264.505 M209.010 266.836 C 210.434 267.736,211.600 268.604,211.600 268.766 C 211.600 269.359,209.755 270.754,208.099 271.412 L 206.399 272.087 204.003 270.544 C 202.685 269.695,201.609 268.820,201.612 268.600 C 201.627 267.529,204.508 265.260,205.910 265.216 C 206.190 265.207,207.585 265.936,209.010 266.836 M342.793 275.081 C 342.687 276.225,342.747 277.015,342.926 276.835 C 343.105 276.656,343.191 275.719,343.118 274.754 L 342.985 273.000 342.793 275.081 M339.867 275.467 C 339.439 275.894,339.560 276.472,340.018 276.189 C 340.247 276.047,340.697 276.149,341.018 276.415 C 341.484 276.802,341.600 276.777,341.600 276.292 C 341.600 275.958,341.315 275.576,340.967 275.443 C 340.184 275.142,340.191 275.142,339.867 275.467 M260.843 278.402 C 263.049 278.984,266.192 280.776,265.740 281.195 C 262.033 284.624,222.194 284.914,218.129 281.541 C 217.120 280.704,218.550 278.913,220.491 278.582 C 225.781 277.681,257.573 277.539,260.843 278.402 M340.373 285.698 C 339.795 287.848,339.752 288.086,339.413 291.050 C 339.095 293.836,339.753 295.591,342.294 298.723 L 343.691 300.446 345.946 300.186 C 350.195 299.694,355.534 297.701,354.429 297.018 C 354.193 296.872,354.000 296.954,354.000 297.200 C 354.000 297.446,353.820 297.536,353.600 297.400 C 353.380 297.264,353.200 297.363,353.200 297.619 C 353.200 297.876,352.942 297.986,352.626 297.865 C 352.310 297.744,351.995 297.813,351.926 298.018 C 351.644 298.853,343.911 299.643,343.110 298.918 C 341.876 297.802,339.879 293.963,339.913 292.773 C 339.983 290.306,340.464 287.026,340.971 285.554 C 341.265 284.699,341.354 284.000,341.169 284.000 C 340.983 284.000,340.625 284.764,340.373 285.698 M360.800 295.346 C 361.790 295.636,363.408 296.288,364.397 296.794 C 365.889 297.559,366.092 297.593,365.597 296.995 C 364.824 296.064,363.057 295.349,360.800 295.055 L 359.000 294.820 360.800 295.346 M363.722 297.914 C 364.095 298.326,364.400 298.874,364.400 299.131 C 364.400 299.389,364.670 299.600,365.000 299.600 C 366.119 299.600,365.233 297.989,363.822 297.458 C 363.086 297.181,363.081 297.205,363.722 297.914 M364.682 300.500 C 364.890 300.775,365.028 301.585,364.988 302.300 C 364.905 303.756,365.388 304.054,365.727 302.757 C 365.996 301.728,365.390 300.000,364.761 300.000 C 364.458 300.000,364.431 300.170,364.682 300.500 " stroke="none" fill="#2c5464" fill-rule="evenodd"></path></g></svg>